M48
;Layer_Color=9474304
;FILE_FORMAT=2:5
INCH,LZ
;TYPE=PLATED
T01F00S00C0.01200
T03F00S00C0.02800
T04F00S00C0.04000
%
T01
X00291Y00044
X00356Y00128
X0041Y00105
X00477Y00143
X00524Y00164
X00575Y00163
X00581Y00294
X00541Y00293
X00502Y00294
X00466Y00332
X00438Y0026
X00446Y0021421
X0044569Y0018222
X00364Y00256
X00329Y00411
X00284Y0043417
X00305Y00576
X00291Y00626
X00315Y00774
X00369Y00772
X00383Y00736
X00467Y00748
X00466Y00714
X00459Y00672
X00504Y00627
X006Y00666
X0071Y00651
X00732Y00744
X0073Y0079
X00688Y00792
X00687Y00748
X0071Y00889
X00755Y0089
X00836Y00852
X00869Y00706
X00925Y006
X00927Y00553
X0079Y00547
X00779Y00588
X00785Y00497
X00648Y00499
X00623Y00532
X00756Y00292
X00793
X00809Y00264
X00738Y00265
X0046681Y0078319
X00456Y00814
X00473Y00853
X00351Y00868
X00304Y00905
X00986Y00894
X00951Y00784
X00984Y00554
X01052Y00555
X01125Y00554
X01127Y00393
X0113Y00331
X01172Y00328
X01057Y00332
X01054Y00394
X00986Y00393
X00989Y00331
X00987Y00268
X01485Y00425
X0149Y0059
X01379Y00638
X01315Y00671
X0133Y0081
X01505Y00827
X0172897Y0069696
X0183Y00703
X01965Y00694
X0197Y00752
X02041Y00722
X02051Y00663
X0209348Y00581
X02092Y00522
X02059Y00523
X0205998Y00453
X02093Y00451
X02035Y0038
X0199Y0041
Y0028
X0207Y003
X02132Y00241
X0225Y00313
X02287Y00279
X02319Y00311
X02351Y00299
X02384Y00317
X02417Y00293
X02452Y0031
X02484Y00296
X0248457Y0039043
X02452Y00468
X02451Y00532
X0248543Y0059957
X02485Y00688
X02449Y0072
X02384Y0071
X02351Y00681
X02321Y00712
X02287Y00688
X0225Y00699
X02124Y00726
X02016Y00571
X01932Y00581
X01935Y00644
X01894Y00524
X01896Y00486
X01863Y00474
Y00538
X0175Y0055
X01813Y00424
X01842Y00397
X0177687Y00301
X0171393Y0030893
X0173Y0017
X01633Y00386
X0237543Y0043543
X023702Y005002
X0234Y00565
X02417Y00677
X02547Y00671
X02585Y0071
X02518Y00724
X0268586Y0073514
X0271314Y0073414
X0271414Y0070114
X0271314Y0066814
X0271214Y0063414
X0271314Y0060014
X0271414Y0056714
X0271814Y0053414
X0271914Y0050114
X0272014Y0046714
Y0043314
X0271914Y0040014
Y0036614
Y0033214
Y0030014
Y0026614
X02653Y00295
X02618
X02585Y00312
X02551Y00296
X02519Y00315
X02517Y00468
Y00533
X0259957Y0049957
X0260457Y0056457
X0260957Y0043457
X02749Y00176
X0269Y0082
X02639Y00881
X02603Y00879
X02558Y00886
T03
X00375Y0045
Y005
Y0055
X00483Y00503
X00533
T04
X0045Y0005
X0055
X0065
X0075
X0085
X0095
X0105
X0115
X0125
X0135
X0145
X0155
X0165
X0175
X0185
X0195
X0205
X0215
X0225
X0235
X0245
X0255
X0265
X0275
Y0095
X0265
X0255
X0245
X0235
X0225
X0215
X0205
X0195
X0185
X0175
X0165
X0155
X0145
X0135
X0125
X0115
X0105
X0095
X0085
X0075
X0065
X0055
X0045
M30
