G04*
G04 #@! TF.GenerationSoftware,Altium Limited,Altium Designer,24.8.2 (39)*
G04*
G04 Layer_Physical_Order=4*
G04 Layer_Color=16711680*
%FSLAX25Y25*%
%MOIN*%
G70*
G04*
G04 #@! TF.SameCoordinates,54D4AE81-F579-4C1F-815F-76D8A96FC484*
G04*
G04*
G04 #@! TF.FilePolarity,Positive*
G04*
G01*
G75*
%ADD12C,0.00600*%
G04:AMPARAMS|DCode=56|XSize=39.37mil|YSize=70.87mil|CornerRadius=19.68mil|HoleSize=0mil|Usage=FLASHONLY|Rotation=270.000|XOffset=0mil|YOffset=0mil|HoleType=Round|Shape=RoundedRectangle|*
%AMROUNDEDRECTD56*
21,1,0.03937,0.03150,0,0,270.0*
21,1,0.00000,0.07087,0,0,270.0*
1,1,0.03937,-0.01575,0.00000*
1,1,0.03937,-0.01575,0.00000*
1,1,0.03937,0.01575,0.00000*
1,1,0.03937,0.01575,0.00000*
%
%ADD56ROUNDEDRECTD56*%
G04:AMPARAMS|DCode=57|XSize=39.37mil|YSize=86.61mil|CornerRadius=19.68mil|HoleSize=0mil|Usage=FLASHONLY|Rotation=270.000|XOffset=0mil|YOffset=0mil|HoleType=Round|Shape=RoundedRectangle|*
%AMROUNDEDRECTD57*
21,1,0.03937,0.04724,0,0,270.0*
21,1,0.00000,0.08661,0,0,270.0*
1,1,0.03937,-0.02362,0.00000*
1,1,0.03937,-0.02362,0.00000*
1,1,0.03937,0.02362,0.00000*
1,1,0.03937,0.02362,0.00000*
%
%ADD57ROUNDEDRECTD57*%
%ADD59C,0.02000*%
%ADD62C,0.00603*%
%ADD64C,0.04000*%
%ADD65R,0.04000X0.04000*%
%ADD66C,0.06400*%
%ADD67R,0.04000X0.04000*%
%ADD68R,0.06400X0.06400*%
%ADD69C,0.02400*%
%ADD78C,0.01000*%
%ADD79C,0.01000*%
D12*
X204730Y21700D02*
X206728D01*
X211828Y26800D02*
X214318D01*
X206728Y21700D02*
X211828Y26800D01*
X214318D02*
X215718Y25400D01*
X222773D01*
X171882Y19700D02*
X202730D01*
X204730Y21700D01*
X159500Y19500D02*
X171682D01*
X145000Y5000D02*
X159500Y19500D01*
X171682D02*
X171882Y19700D01*
X205900Y23700D02*
X211700Y29500D01*
X203001Y22800D02*
X203901Y23700D01*
X211700Y29500D02*
X216843D01*
X203901Y23700D02*
X205900D01*
X144800Y22800D02*
X203001D01*
X216843Y29500D02*
X218643Y27700D01*
X214700Y55400D02*
X224300Y65000D01*
X252600D01*
X254614Y67014D02*
Y78714D01*
X252600Y65000D02*
X254614Y67014D01*
X164900Y89500D02*
X169900Y84500D01*
X155000Y95000D02*
X160500Y89500D01*
X169900Y84500D02*
X185500D01*
X160500Y89500D02*
X164900D01*
X135000Y95000D02*
X142200Y87800D01*
X156543D01*
X125000Y95000D02*
X134600Y85400D01*
X151618D01*
X151818Y85200D01*
X156315D02*
X158015Y83500D01*
X151818Y85200D02*
X156315D01*
X158015Y83500D02*
X162343D01*
X180428Y89572D02*
X189100D01*
X175000Y95000D02*
X180428Y89572D01*
X115000Y5000D02*
X136700Y26700D01*
X143043D01*
X72800Y12800D02*
X105400D01*
X65000Y5000D02*
X72800Y12800D01*
X105400D02*
X125800Y33200D01*
X67300Y17300D02*
X105700D01*
X55000Y5000D02*
X67300Y17300D01*
X105700D02*
X124000Y35600D01*
X125800Y33200D02*
X150200D01*
X124000Y35600D02*
X149772D01*
X130700Y29200D02*
X160547D01*
X105000Y5000D02*
X106461D01*
X108035Y6573D01*
X108073D01*
X130700Y29200D01*
X125000Y9900D02*
X139800Y24700D01*
X143872D02*
X143972Y24800D01*
X139800Y24700D02*
X143872D01*
X143972Y24800D02*
X201800D01*
X125000Y5000D02*
Y9900D01*
X176900Y11200D02*
X179400Y13700D01*
X195215D01*
X171200Y11200D02*
X176900D01*
X165000Y5000D02*
X171200Y11200D01*
X165700Y15700D02*
X170482D01*
X175518D02*
X194386D01*
X155000Y5000D02*
X165700Y15700D01*
X174118Y14300D02*
X175518Y15700D01*
X171882Y14300D02*
X174118D01*
X170482Y15700D02*
X171882Y14300D01*
X184445Y11700D02*
X196043D01*
X177745Y5000D02*
X184445Y11700D01*
X196043D02*
X198043Y13700D01*
X175000Y5000D02*
X177745D01*
X225000D02*
X229700Y9700D01*
X235298D02*
X236238Y9580D01*
X229700Y9700D02*
X235298D01*
X236238Y9580D02*
X237067Y9580D01*
X239552D02*
X241672Y11700D01*
X237067Y9580D02*
X239552D01*
X183001Y75329D02*
X186186Y72143D01*
X191657D01*
X194132Y69668D01*
X163986Y76200D02*
X167790Y72396D01*
X175533Y67686D02*
X176118Y67100D01*
X175533Y67686D02*
Y68514D01*
X176118Y67100D02*
X194618D01*
X175596Y68578D02*
Y70815D01*
X175533Y68514D02*
X175596Y68578D01*
X174015Y72396D02*
X175596Y70815D01*
X167790Y72396D02*
X174015D01*
X123800Y76200D02*
X163986D01*
X194618Y67100D02*
X195418Y66300D01*
X205100D01*
X173300Y63700D02*
X192421D01*
X193121Y64400D01*
X193500D01*
X194238Y74143D02*
X195882Y72500D01*
X187015Y74143D02*
X194238D01*
X183829Y77329D02*
X187015Y74143D01*
X162900Y74100D02*
X169800Y67200D01*
X169800D02*
X173300Y63700D01*
X169800Y67200D02*
X169800D01*
X168972Y65200D02*
X172472Y61700D01*
X194618D01*
X196200Y63282D01*
Y63282D02*
X197218Y64300D01*
X196200Y63282D02*
Y63282D01*
X161236Y70000D02*
X173136Y58100D01*
X193153D01*
X242828Y90500D02*
X246620Y86708D01*
Y86708D02*
Y86708D01*
Y86708D02*
X254614Y78714D01*
X237437Y90500D02*
X242828D01*
X237144Y90793D02*
X237437Y90500D01*
X235000Y95000D02*
X235001Y94996D01*
X237115Y90823D02*
X237144Y90793D01*
X267600Y34700D02*
X268200Y34100D01*
X205482Y32300D02*
X207882Y34700D01*
X267600D01*
X268200Y18200D02*
Y34100D01*
X246100Y9700D02*
X258500Y22100D01*
Y31200D01*
X251900Y21700D02*
Y31500D01*
X243900Y13700D02*
X251900Y21700D01*
X242243Y17700D02*
X245200Y20657D01*
Y31000D01*
X238400Y22570D02*
Y31700D01*
X235529Y19700D02*
X238400Y22570D01*
X231900Y24586D02*
Y31100D01*
X228496Y27696D02*
X228700Y27900D01*
X228496Y26286D02*
Y27696D01*
X223073Y25700D02*
X227910D01*
X228496Y26286D01*
X231014Y23700D02*
X231900Y24586D01*
X224732Y31032D02*
X225000Y31300D01*
X224732Y29061D02*
Y31032D01*
X223372Y27700D02*
X224732Y29061D01*
X207982Y55400D02*
X214700D01*
X227814Y74186D02*
X228700Y73300D01*
Y68800D02*
Y73300D01*
X229407Y75893D02*
X231832Y73468D01*
Y71468D02*
X232100Y71200D01*
X231832Y71468D02*
Y73468D01*
X229407Y75893D02*
X229407D01*
X235100Y68100D02*
Y73800D01*
X230714Y78186D02*
X235100Y73800D01*
X241700Y72289D02*
X242000Y72589D01*
X241700Y67700D02*
Y72289D01*
X242000Y72589D02*
Y76800D01*
X245100Y72200D02*
Y79072D01*
X244900Y72000D02*
X245100Y72200D01*
X239986Y84186D02*
X245100Y79072D01*
X248500Y68800D02*
Y78500D01*
X240767Y86233D02*
X248500Y78500D01*
X251800Y72400D02*
Y78600D01*
X79005Y88732D02*
X79962Y87775D01*
X75768Y88732D02*
X79005D01*
X79962Y87775D02*
X83700D01*
X95100Y82700D02*
X95250Y82550D01*
X83700Y87775D02*
X89868D01*
X95250Y82550D02*
X104850D01*
X89868Y87775D02*
X94943Y82700D01*
X95100D01*
X90697Y89775D02*
X95772Y84700D01*
X97600D02*
X97750Y84550D01*
X95772Y84700D02*
X97600D01*
X97750Y84550D02*
X106057D01*
X80225Y89775D02*
X90697D01*
X88973Y94327D02*
X96600Y86700D01*
X106736D02*
X121436Y72000D01*
X96600Y86700D02*
X106736D01*
X85673Y94327D02*
X88973D01*
X85000Y95000D02*
X85673Y94327D01*
X240843Y13700D02*
X243900D01*
X237895Y11580D02*
X238723D01*
X225964Y9600D02*
X226772D01*
X219600D02*
X224036D01*
X238995Y11852D02*
X240843Y13700D01*
X226772Y9600D02*
X228872Y11700D01*
X237775D01*
X237895Y11580D01*
X238723D02*
X238995Y11852D01*
X215000Y5000D02*
X219600Y9600D01*
X255100Y29600D02*
X255136Y29564D01*
Y21564D02*
Y29564D01*
X245272Y11700D02*
X255136Y21564D01*
X241672Y11700D02*
X245272D01*
X120772Y63800D02*
X137900D01*
X112572Y72000D02*
X120772Y63800D01*
X100625Y72000D02*
X112572D01*
X99225Y70600D02*
X100625Y72000D01*
X86900Y70600D02*
X99225D01*
X75500Y89000D02*
X75700Y88800D01*
X75768Y88732D01*
X104850Y82550D02*
X120600Y66800D01*
X125711D01*
X126011Y67100D02*
X131500D01*
X125711Y66800D02*
X126011Y67100D01*
X158300Y41300D02*
X164804D01*
X166404Y39700D01*
X184200D01*
X150200Y33200D02*
X158300Y41300D01*
X167586Y43300D02*
X169186Y41700D01*
X157472Y43300D02*
X167586D01*
X149772Y35600D02*
X157472Y43300D01*
X169186Y41700D02*
X174704D01*
X175403Y42400D01*
X181300D01*
X235923Y5923D02*
X238723D01*
X235000Y5000D02*
X235923Y5923D01*
X238723D02*
X242500Y9700D01*
X246100D01*
X243072Y15700D02*
X248400Y21028D01*
Y29600D01*
X240015Y15700D02*
X243072D01*
X205000Y5000D02*
X209700Y9700D01*
X228043Y13700D02*
X238015D01*
X209700Y9700D02*
X216872D01*
X238015Y13700D02*
X240015Y15700D01*
X216872Y9700D02*
X218772Y11600D01*
X218776Y11600D02*
X224885Y11699D01*
X224930Y11700D02*
X226055Y11711D01*
X228043Y13700D01*
X239186Y17700D02*
X242243D01*
X208872Y11700D02*
X216000D01*
X206872Y9700D02*
X208872Y11700D01*
X195000Y5000D02*
X199700Y9700D01*
X206872D01*
X216000Y11700D02*
X216948Y12648D01*
X237186Y15700D02*
X239186Y17700D01*
X216948Y12648D02*
X217143Y12800D01*
X217943Y13600D01*
X224093Y13691D01*
X224900Y13699D01*
X224909Y13700D02*
X225218Y13703D01*
X227215Y15700D01*
X237186D01*
X241700Y20286D02*
Y29300D01*
X241114Y19700D02*
X241700Y20286D01*
X238358Y19700D02*
X241114D01*
X189700Y9700D02*
X196872D01*
X198872Y11700D01*
X185000Y5000D02*
X189700Y9700D01*
X236358Y17700D02*
X238358Y19700D01*
X226386Y17700D02*
X236358D01*
X206043Y11700D02*
X208043Y13700D01*
X198872Y11700D02*
X206043D01*
X208043Y13700D02*
X215172D01*
X216220Y14748D01*
X224669Y15983D02*
X226386Y17700D01*
X216220Y14748D02*
X216415Y14900D01*
X217115Y15600D01*
X223256Y15682D01*
X224380Y15694D01*
X224669Y15983D01*
X205215Y13700D02*
X207215Y15700D01*
X198043Y13700D02*
X205215D01*
X207215Y15700D02*
X214343D01*
X215391Y16748D02*
X215586Y16900D01*
X214343Y15700D02*
X215391Y16748D01*
X215586Y16900D02*
X216286Y17600D01*
X216290Y17600D02*
X222419Y17674D01*
X223543Y17685D01*
X225558Y19700D01*
X235529D01*
X195215Y13700D02*
X197215Y15700D01*
X204386D02*
X206386Y17700D01*
X197215Y15700D02*
X204386D01*
X235100Y22286D02*
Y29900D01*
X206386Y17700D02*
X213515D01*
X214563Y18748D01*
X234514Y21700D02*
X235100Y22286D01*
X221582Y19665D02*
X222706Y19677D01*
X224729Y21700D01*
X214564Y18749D02*
X215458Y19600D01*
X224729Y21700D02*
X234514D01*
X215461Y19600D02*
X221582Y19665D01*
X203558Y17700D02*
X205558Y19700D01*
X196386Y17700D02*
X203558D01*
X194386Y15700D02*
X196386Y17700D01*
X223901Y23700D02*
X231014D01*
X212686Y19700D02*
X213736Y20749D01*
X205558Y19700D02*
X212686D01*
X213737Y20751D02*
X214628Y21599D01*
X214633Y21600D02*
X220745Y21656D01*
X221869Y21668D01*
X223901Y23700D01*
X222773Y25400D02*
X223073Y25700D01*
X135000Y5000D02*
Y13000D01*
X144800Y22800D01*
X218643Y27700D02*
X223372D01*
X201800Y24800D02*
X207000Y30000D01*
X143143Y26800D02*
X197714D01*
X198914Y28000D01*
X199000D01*
X143043Y26700D02*
X143143Y26800D01*
X193828Y38000D02*
X203500D01*
X166347Y35000D02*
X190828D01*
X193828Y38000D01*
X160547Y29200D02*
X166347Y35000D01*
X95000Y5000D02*
X99700Y9700D01*
X106871D01*
X182382Y37700D02*
X183082Y37000D01*
X185318D01*
X186018Y37700D01*
X166218D02*
X182382D01*
X186018D02*
X190700D01*
X106871Y9700D02*
X128372Y31200D01*
X159718D01*
X166218Y37700D01*
X190700D02*
X193000Y40000D01*
X197714D01*
X198714Y41000D01*
X199000D01*
X75000Y95000D02*
X80225Y89775D01*
X106057Y84550D02*
X120607Y70000D01*
X161236D01*
X162464Y71600D02*
X162572D01*
X121436Y72000D02*
X162064D01*
X162464Y71600D01*
X162572D02*
X168972Y65200D01*
X168972D01*
X197218Y64300D02*
X203148D01*
X209348Y58100D01*
X123072Y74100D02*
X162900D01*
X107586Y89586D02*
X123072Y74100D01*
X95000Y95000D02*
X96023Y93977D01*
X98623D02*
X103014Y89586D01*
X96023Y93977D02*
X98623D01*
X103014Y89586D02*
X107586D01*
X105000Y95000D02*
X123800Y76200D01*
X164815Y78200D02*
X167686Y75329D01*
X115000Y90100D02*
X126900Y78200D01*
X115000Y90100D02*
Y95000D01*
X126900Y78200D02*
X164815D01*
X167686Y75329D02*
X183001D01*
X196232Y69668D02*
X196500Y69400D01*
X194132Y69668D02*
X196232D01*
X168514Y77329D02*
X183829D01*
X162343Y83500D02*
X168022Y77822D01*
X168022D01*
X168514Y77329D01*
X201453Y72468D02*
X203832D01*
X204100Y72200D01*
X201421Y72500D02*
X201453Y72468D01*
X195882Y72500D02*
X201421D01*
X168928Y79743D02*
X184243D01*
X168850Y79822D02*
X168850D01*
X163172Y85500D02*
X168850Y79822D01*
X168850D02*
X168928Y79743D01*
X156543Y87800D02*
X158843Y85500D01*
X163172D01*
X195714Y76143D02*
X196657Y75200D01*
X184243Y79743D02*
X187843Y76143D01*
X195714D01*
X196657Y75200D02*
X197000D01*
X224343Y71143D02*
X225000Y69900D01*
X224061Y71425D02*
X224343Y71143D01*
X217193Y72000D02*
X222199D01*
X210353Y78143D02*
X217193Y72000D01*
X222199D02*
X224061Y71425D01*
X188672Y78143D02*
X189000D01*
X210353Y78143D01*
X184993Y81822D02*
X188672Y78143D01*
X169678Y81822D02*
X184993D01*
X159672Y87500D02*
X164000D01*
X164293Y87207D02*
X169678Y81822D01*
X145000Y95000D02*
X149307Y90693D01*
X149600Y90400D01*
X154036D01*
X155964D02*
X156772D01*
X159672Y87500D01*
X164000D02*
X164293Y87207D01*
X211857Y80143D02*
X217814Y74186D01*
X227814D01*
X189500Y80143D02*
Y80500D01*
Y80143D02*
X211857D01*
X185500Y84500D02*
X189500Y80500D01*
X229114Y76186D02*
X229407Y75893D01*
X218643Y76186D02*
X229114D01*
X212685Y82143D02*
X218643Y76186D01*
X190857Y82143D02*
X212685D01*
X186500Y86500D02*
X190857Y82143D01*
X173500Y86500D02*
X186500D01*
X165000Y95000D02*
X173500Y86500D01*
X213514Y84143D02*
X218760Y78897D01*
X222886Y78186D02*
X230714D01*
X222823Y78186D02*
X222886Y78186D01*
X189100Y89572D02*
X192672Y86000D01*
X204322D01*
X206178Y84143D01*
X213514D01*
X238200Y71200D02*
X238400Y71000D01*
X237614Y75542D02*
X238200Y74956D01*
X222950Y80186D02*
X231543D01*
X236159Y75569D01*
X238200Y71200D02*
Y74956D01*
X236159Y75569D02*
X237614Y75542D01*
X186461Y95000D02*
X188035Y93427D01*
X188073D01*
X185000Y95000D02*
X186461D01*
X214342Y86143D02*
X219759Y80726D01*
X192500Y89000D02*
X198172D01*
X199014Y88157D01*
X206157D01*
X208172Y86143D01*
X214342D01*
X188073Y93427D02*
X192500Y89000D01*
X215171Y88143D02*
X220747Y82567D01*
X223080Y82186D02*
X236614D01*
X242000Y76800D01*
X203053Y90300D02*
X206843D01*
X202603Y90750D02*
X203053Y90300D01*
X199250Y90750D02*
X202603D01*
X206843Y90300D02*
X209000Y88143D01*
X195000Y95000D02*
X199250Y90750D01*
X209000Y88143D02*
X215171D01*
X209857Y90143D02*
X215999D01*
X205000Y95000D02*
X209564Y90436D01*
X209857Y90143D01*
X215999D02*
X221723Y84419D01*
X223213Y84186D02*
X239986D01*
X216593Y92377D02*
X222685Y86285D01*
X216300Y92670D02*
X216593Y92377D01*
X215000Y95000D02*
X216300Y92670D01*
X223021Y86233D02*
X240767D01*
X242000Y88400D02*
X251800Y78600D01*
X242000Y88400D02*
Y88500D01*
X225823Y94177D02*
X228823D01*
X234500Y88500D02*
X242000D01*
X228823Y94177D02*
X234500Y88500D01*
X225000Y95000D02*
X225823Y94177D01*
X201600Y57100D02*
X206282D01*
X207982Y55400D01*
X258500Y71000D02*
Y81500D01*
X245000Y95000D02*
X258500Y81500D01*
X255000Y5000D02*
X268200Y18200D01*
X195700Y32300D02*
X205482D01*
X193500Y30100D02*
X195700Y32300D01*
X177687Y30100D02*
X193500D01*
D56*
X22500Y60984D02*
D03*
Y95000D02*
D03*
Y5000D02*
D03*
Y39016D02*
D03*
D57*
X6752Y60984D02*
D03*
Y95000D02*
D03*
Y5000D02*
D03*
Y39016D02*
D03*
D59*
X61000Y67600D02*
X65000Y71600D01*
X60000Y66600D02*
X61000Y67600D01*
X65000Y71600D02*
X74360D01*
X83600Y80840D01*
Y85200D01*
X61000Y76800D02*
X65000Y80800D01*
Y88800D01*
X54200Y70000D02*
X61000Y76800D01*
X54200Y54500D02*
Y70000D01*
X43828Y54500D02*
X54200D01*
X58800D01*
Y52175D02*
Y54500D01*
Y52175D02*
X60975Y50000D01*
X64417D01*
X64441Y49977D01*
X64723D01*
X64800Y49900D01*
X65000Y88800D02*
Y95000D01*
X40328Y51000D02*
X43828Y54500D01*
X38041Y50000D02*
X39041Y51000D01*
X40328D01*
X37500Y50000D02*
X38041D01*
D62*
X44600Y21421D02*
X44941D01*
X45852Y20510D02*
X55610D01*
X45821Y19107D02*
X56191D01*
X44569Y18222D02*
X44935D01*
X45821Y19107D01*
X44941Y21421D02*
X45852Y20510D01*
X56191Y19107D02*
X86883Y49799D01*
X183259Y43696D02*
X194980D01*
X198984Y47700D01*
X194398Y45099D02*
X198403Y49103D01*
X89320Y46305D02*
X182634D01*
X183841Y45099D02*
X194398D01*
X182634Y46305D02*
X183841Y45099D01*
X89902Y44901D02*
X182053D01*
X183259Y43696D01*
X78100Y33100D02*
X89902Y44901D01*
X76697Y33681D02*
X89320Y46305D01*
X39047Y82200D02*
X44331Y76916D01*
X39628Y83603D02*
X44912Y78319D01*
X46681D01*
X44331Y76916D02*
X44390D01*
X46506Y74800D02*
X46700D01*
X44390Y76916D02*
X46506Y74800D01*
X35255Y82200D02*
X39047D01*
X34674Y83603D02*
X39628D01*
X33498Y82428D02*
X34674Y83603D01*
X33498Y79299D02*
Y82428D01*
X34901Y79299D02*
Y81847D01*
X35255Y82200D01*
X31600Y77400D02*
X33498Y79299D01*
X31500Y77400D02*
X31600D01*
X36900Y77200D02*
Y77300D01*
X34901Y79299D02*
X36900Y77300D01*
X78100Y29403D02*
Y33100D01*
X205662Y45636D02*
X205998Y45300D01*
X204564Y45636D02*
X205662D01*
X198984Y47700D02*
X202500D01*
X204564Y45636D01*
X76697Y29403D02*
Y33681D01*
X202703Y49103D02*
X205900Y52300D01*
X198403Y49103D02*
X202703D01*
X86883Y49799D02*
X188348D01*
X189547Y48600D01*
X189600D01*
X55610Y20510D02*
X86301Y51201D01*
X189347Y52400D02*
X189400D01*
X86301Y51201D02*
X188148D01*
X189347Y52400D01*
D64*
X53300Y50300D02*
D03*
X37500Y45000D02*
D03*
Y50000D02*
D03*
D65*
X48300Y50300D02*
D03*
D66*
X215000Y5000D02*
D03*
X225000D02*
D03*
X65000D02*
D03*
X55000D02*
D03*
X245000D02*
D03*
X235000D02*
D03*
X205000D02*
D03*
X195000D02*
D03*
X185000D02*
D03*
X175000D02*
D03*
X165000D02*
D03*
X155000D02*
D03*
X145000D02*
D03*
X135000D02*
D03*
X125000D02*
D03*
X115000D02*
D03*
X105000D02*
D03*
X95000D02*
D03*
X75000Y95000D02*
D03*
X85000D02*
D03*
X95000D02*
D03*
X105000D02*
D03*
X115000D02*
D03*
X125000D02*
D03*
X135000D02*
D03*
X145000D02*
D03*
X155000D02*
D03*
X165000D02*
D03*
X175000D02*
D03*
X185000D02*
D03*
X195000D02*
D03*
X205000D02*
D03*
X215000D02*
D03*
X225000D02*
D03*
X235000D02*
D03*
X245000D02*
D03*
X255000D02*
D03*
X85000Y5000D02*
D03*
X75000D02*
D03*
X255000D02*
D03*
X65000Y95000D02*
D03*
X265000D02*
D03*
X55000D02*
D03*
X45000D02*
D03*
X265000Y5000D02*
D03*
X45000D02*
D03*
D67*
X37500Y55000D02*
D03*
D68*
X275000Y5000D02*
D03*
Y95000D02*
D03*
D69*
X29100Y4400D02*
D03*
X41000Y10500D02*
D03*
X35600Y12800D02*
D03*
X47700Y14300D02*
D03*
X57500Y16300D02*
D03*
X52400Y16400D02*
D03*
X44569Y18222D02*
D03*
X44600Y21421D02*
D03*
X36400Y25600D02*
D03*
X43800Y26000D02*
D03*
X54100Y29300D02*
D03*
X58100Y29400D02*
D03*
X28400Y43417D02*
D03*
X29100Y62600D02*
D03*
X30400Y90500D02*
D03*
X30500Y57600D02*
D03*
X31500Y77400D02*
D03*
X32900Y41100D02*
D03*
X35100Y86800D02*
D03*
X36900Y77200D02*
D03*
X38300Y73600D02*
D03*
X45600Y81400D02*
D03*
X45900Y67200D02*
D03*
X46600Y33200D02*
D03*
Y71400D02*
D03*
X46681Y78319D02*
D03*
X46700Y74800D02*
D03*
X47300Y85300D02*
D03*
X50200Y29400D02*
D03*
X50400Y62700D02*
D03*
X60000Y66600D02*
D03*
X62300Y53200D02*
D03*
X64800Y49900D02*
D03*
X73800Y26500D02*
D03*
X75600Y29200D02*
D03*
X78500Y49700D02*
D03*
X79000Y54700D02*
D03*
X79300Y29200D02*
D03*
X80900Y26400D02*
D03*
X92700Y55300D02*
D03*
X98600Y39300D02*
D03*
X98700Y26800D02*
D03*
X98900Y33100D02*
D03*
X105400Y39400D02*
D03*
X105700Y33200D02*
D03*
X112700Y39300D02*
D03*
X113000Y33100D02*
D03*
X117200Y32800D02*
D03*
X148500Y42500D02*
D03*
X163300Y38600D02*
D03*
X171393Y30893D02*
D03*
X68700Y74800D02*
D03*
X68800Y79200D02*
D03*
X71000Y65100D02*
D03*
Y88900D02*
D03*
X73000Y79000D02*
D03*
X73200Y74400D02*
D03*
X75500Y89000D02*
D03*
X77900Y58800D02*
D03*
X83600Y85200D02*
D03*
X86900Y70600D02*
D03*
X92500Y60000D02*
D03*
X95100Y78400D02*
D03*
X98400Y55400D02*
D03*
X98600Y89400D02*
D03*
X105200Y55500D02*
D03*
X112500Y55400D02*
D03*
X131500Y67100D02*
D03*
X133000Y81000D02*
D03*
X137900Y63800D02*
D03*
X149000Y59000D02*
D03*
X150500Y82700D02*
D03*
X173000Y17000D02*
D03*
X213200Y24100D02*
D03*
X228700Y27900D02*
D03*
X199000Y28000D02*
D03*
X207000Y30000D02*
D03*
X177687Y30100D02*
D03*
X231900Y31100D02*
D03*
X225000Y31300D02*
D03*
X203500Y38000D02*
D03*
X184200Y39700D02*
D03*
X172897Y69696D02*
D03*
X175000Y55000D02*
D03*
X181300Y42400D02*
D03*
X183000Y70300D02*
D03*
X186300Y47400D02*
D03*
Y53800D02*
D03*
X189400Y52400D02*
D03*
X189600Y48600D02*
D03*
X193200Y58100D02*
D03*
X193500Y64400D02*
D03*
X196500Y69400D02*
D03*
X197000Y75200D02*
D03*
X199000Y41000D02*
D03*
X201600Y57100D02*
D03*
X204100Y72200D02*
D03*
X205100Y66300D02*
D03*
X205900Y52300D02*
D03*
X205998Y45300D02*
D03*
X209200Y52200D02*
D03*
X209300Y45100D02*
D03*
X209348Y58100D02*
D03*
X212400Y72600D02*
D03*
X225000Y69900D02*
D03*
X228700Y68800D02*
D03*
X232100Y71200D02*
D03*
X234000Y56500D02*
D03*
X235100Y29900D02*
D03*
X237020Y50020D02*
D03*
X237543Y43543D02*
D03*
X238400Y31700D02*
D03*
X241700Y29300D02*
D03*
X245200Y31000D02*
D03*
Y46800D02*
D03*
X248400Y29600D02*
D03*
X248457Y39043D02*
D03*
X251700Y46800D02*
D03*
X251900Y31500D02*
D03*
X255100Y29600D02*
D03*
X258500Y31200D02*
D03*
X259957Y49957D02*
D03*
X260957Y43457D02*
D03*
X261800Y29500D02*
D03*
X265300D02*
D03*
X271914Y26614D02*
D03*
Y30014D02*
D03*
Y33214D02*
D03*
Y36614D02*
D03*
Y40014D02*
D03*
X272014Y43314D02*
D03*
Y46714D02*
D03*
X274900Y17600D02*
D03*
X235100Y68100D02*
D03*
X238400Y71000D02*
D03*
X241700Y67700D02*
D03*
X244900Y72000D02*
D03*
X245100Y53200D02*
D03*
X248500Y68800D02*
D03*
X248543Y59957D02*
D03*
X251700Y53300D02*
D03*
X251800Y72400D02*
D03*
X254700Y67100D02*
D03*
X255800Y88600D02*
D03*
X258500Y71000D02*
D03*
X260300Y87900D02*
D03*
X260457Y56457D02*
D03*
X263900Y88100D02*
D03*
X268586Y73514D02*
D03*
X269000Y82000D02*
D03*
X271214Y63414D02*
D03*
X271314Y66814D02*
D03*
Y60014D02*
D03*
Y73414D02*
D03*
X271414Y70114D02*
D03*
Y56714D02*
D03*
X271814Y53414D02*
D03*
X271914Y50114D02*
D03*
D78*
X235001Y94996D02*
G03*
X237115Y90823I9787J2335D01*
G01*
X225964Y9600D02*
G03*
X224036Y9600I-964J-4600D01*
G01*
X218772Y11600D02*
G03*
X218776Y11600I-12J1000D01*
G01*
X224930Y11700D02*
G03*
X224885Y11699I70J-6700D01*
G01*
X224909Y13700D02*
G03*
X224900Y13699I91J-8699D01*
G01*
X216286Y17600D02*
G03*
X216290Y17600I-8J1000D01*
G01*
X214563Y18748D02*
G03*
X214564Y18749I-688J726D01*
G01*
X215458Y19600D02*
G03*
X215461Y19600I-8J1000D01*
G01*
X214628Y21599D02*
G03*
X214630Y21600I-689J724D01*
G01*
X213736Y20749D02*
G03*
X213737Y20751I-688J726D01*
G01*
X214630Y21600D02*
G03*
X214633Y21600I-5J1000D01*
G01*
X154036Y90400D02*
G03*
X155964Y90400I964J4600D01*
G01*
X218760Y78897D02*
G03*
X222823Y78186I9403J41746D01*
G01*
X219759Y80726D02*
G03*
X222950Y80186I8404J39917D01*
G01*
X220747Y82567D02*
G03*
X223080Y82186I7416J38077D01*
G01*
X221723Y84419D02*
G03*
X223213Y84186I6440J36224D01*
G01*
X222685Y86285D02*
G03*
X223021Y86233I5477J34358D01*
G01*
D79*
X237144Y90793D02*
D03*
X216593Y92377D02*
D03*
M02*
