G04*
G04 #@! TF.GenerationSoftware,Altium Limited,Altium Designer,24.8.2 (39)*
G04*
G04 Layer_Physical_Order=3*
G04 Layer_Color=32768*
%FSLAX25Y25*%
%MOIN*%
G70*
G04*
G04 #@! TF.SameCoordinates,54D4AE81-F579-4C1F-815F-76D8A96FC484*
G04*
G04*
G04 #@! TF.FilePolarity,Negative*
G04*
G01*
G75*
%ADD53C,0.06800*%
%ADD72C,0.00010*%
%ADD73C,0.08000*%
G04:AMPARAMS|DCode=74|XSize=90mil|YSize=90mil|CornerRadius=0mil|HoleSize=0mil|Usage=FLASHONLY|Rotation=0.000|XOffset=0mil|YOffset=0mil|HoleType=Round|Shape=Relief|Width=20mil|Gap=10mil|Entries=4|*
%AMTHD74*
7,0,0,0.09000,0.07000,0.02000,45*
%
%ADD74THD74*%
%AMTHOVALD75*
21,1,0.03150,0.07362,0,0,360.0*
1,1,0.07362,-0.01575,0.00000*
1,1,0.07362,0.01575,0.00000*
21,0,0.03150,0.05362,0,0,360.0*
1,0,0.05362,-0.01575,0.00000*
1,0,0.05362,0.01575,0.00000*
4,0,4,-0.00868,-0.00707,-0.03471,-0.03310,-0.04885,-0.01896,-0.02282,0.00707,-0.00868,-0.00707,0.0*
4,0,4,0.02282,-0.00707,0.04885,0.01896,0.03471,0.03310,0.00868,0.00707,0.02282,-0.00707,0.0*
4,0,4,-0.02282,-0.00707,-0.04885,0.01896,-0.03471,0.03310,-0.00868,0.00707,-0.02282,-0.00707,0.0*
4,0,4,0.00868,-0.00707,0.03471,-0.03310,0.04885,-0.01896,0.02282,0.00707,0.00868,-0.00707,0.0*
%
%ADD75THOVALD75*%

%AMTHOVALD76*
21,1,0.04724,0.07362,0,0,360.0*
1,1,0.07362,-0.02362,0.00000*
1,1,0.07362,0.02362,0.00000*
21,0,0.04724,0.05362,0,0,360.0*
1,0,0.05362,-0.02362,0.00000*
1,0,0.05362,0.02362,0.00000*
4,0,4,-0.01655,-0.00707,-0.04258,-0.03310,-0.05672,-0.01896,-0.03069,0.00707,-0.01655,-0.00707,0.0*
4,0,4,0.03069,-0.00707,0.05672,0.01896,0.04258,0.03310,0.01655,0.00707,0.03069,-0.00707,0.0*
4,0,4,-0.03069,-0.00707,-0.05672,0.01896,-0.04258,0.03310,-0.01655,0.00707,-0.03069,-0.00707,0.0*
4,0,4,0.01655,-0.00707,0.04258,-0.03310,0.05672,-0.01896,0.03069,0.00707,0.01655,-0.00707,0.0*
%
%ADD76THOVALD76*%

%ADD77C,0.05200*%
D53*
X53300Y50300D02*
D03*
X48300D02*
D03*
X37500Y45000D02*
D03*
Y50000D02*
D03*
Y55000D02*
D03*
D72*
X0Y0D02*
Y100000D01*
X280000D01*
Y0D02*
Y100000D01*
X0Y0D02*
X280000D01*
D73*
X215000Y5000D02*
D03*
X225000D02*
D03*
X65000D02*
D03*
X55000D02*
D03*
X245000D02*
D03*
X235000D02*
D03*
X205000D02*
D03*
X195000D02*
D03*
X185000D02*
D03*
X175000D02*
D03*
X165000D02*
D03*
X155000D02*
D03*
X145000D02*
D03*
X135000D02*
D03*
X125000D02*
D03*
X115000D02*
D03*
X105000D02*
D03*
X95000D02*
D03*
X75000Y95000D02*
D03*
X85000D02*
D03*
X95000D02*
D03*
X105000D02*
D03*
X115000D02*
D03*
X125000D02*
D03*
X135000D02*
D03*
X145000D02*
D03*
X155000D02*
D03*
X165000D02*
D03*
X175000D02*
D03*
X185000D02*
D03*
X195000D02*
D03*
X205000D02*
D03*
X215000D02*
D03*
X225000D02*
D03*
X235000D02*
D03*
X245000D02*
D03*
X255000D02*
D03*
X85000Y5000D02*
D03*
X75000D02*
D03*
X255000D02*
D03*
X65000Y95000D02*
D03*
X275000Y5000D02*
D03*
X265000Y95000D02*
D03*
X45000D02*
D03*
D74*
X275000D02*
D03*
X55000D02*
D03*
X265000Y5000D02*
D03*
X45000D02*
D03*
D75*
X22500Y60984D02*
D03*
Y95000D02*
D03*
Y5000D02*
D03*
Y39016D02*
D03*
D76*
X6752Y60984D02*
D03*
Y95000D02*
D03*
Y5000D02*
D03*
Y39016D02*
D03*
D77*
X47700Y14300D02*
D03*
X57500Y16300D02*
D03*
X52400Y16400D02*
D03*
X44569Y18222D02*
D03*
X44600Y21421D02*
D03*
X31500Y77400D02*
D03*
X36900Y77200D02*
D03*
X46681Y78319D02*
D03*
X46700Y74800D02*
D03*
X60000Y66600D02*
D03*
X64800Y49900D02*
D03*
X75600Y29200D02*
D03*
X78500Y49700D02*
D03*
X79300Y29200D02*
D03*
X148500Y42500D02*
D03*
X75500Y89000D02*
D03*
X83600Y85200D02*
D03*
X86900Y70600D02*
D03*
X98600Y89400D02*
D03*
X131500Y67100D02*
D03*
X137900Y63800D02*
D03*
X149000Y59000D02*
D03*
X173000Y17000D02*
D03*
X228700Y27900D02*
D03*
X199000Y28000D02*
D03*
X207000Y30000D02*
D03*
X177687Y30100D02*
D03*
X231900Y31100D02*
D03*
X225000Y31300D02*
D03*
X203500Y38000D02*
D03*
X184200Y39700D02*
D03*
X181300Y42400D02*
D03*
X189400Y52400D02*
D03*
X189600Y48600D02*
D03*
X193200Y58100D02*
D03*
X193500Y64400D02*
D03*
X196500Y69400D02*
D03*
X197000Y75200D02*
D03*
X199000Y41000D02*
D03*
X201600Y57100D02*
D03*
X204100Y72200D02*
D03*
X205100Y66300D02*
D03*
X205900Y52300D02*
D03*
X205998Y45300D02*
D03*
X209348Y58100D02*
D03*
X225000Y69900D02*
D03*
X228700Y68800D02*
D03*
X232100Y71200D02*
D03*
X235100Y29900D02*
D03*
X238400Y31700D02*
D03*
X241700Y29300D02*
D03*
X245200Y31000D02*
D03*
X248400Y29600D02*
D03*
X251900Y31500D02*
D03*
X255100Y29600D02*
D03*
X258500Y31200D02*
D03*
X235100Y68100D02*
D03*
X238400Y71000D02*
D03*
X241700Y67700D02*
D03*
X244900Y72000D02*
D03*
X248500Y68800D02*
D03*
X251800Y72400D02*
D03*
X254700Y67100D02*
D03*
X258500Y71000D02*
D03*
X260300Y87900D02*
D03*
X263900Y88100D02*
D03*
M02*
